# xmcd
#
# Track frame offsets: 
#        182
#        23992
#        41775
#        67505
#        87495
#        106550
#        139565
#        157912
#        183262
#        199742
#        220242
#        242277
#        261207
#
# Disc length: 3629 seconds
#
# Revision: 3
# Processed by: cddbd v1.5.2PL0 Copyright (c) Steve Scherf et al.
# Submitted via: ExactAudioCopy v0.99pb4
#
DISCID=a00e2b0d
DTITLE=Zucchero - Diamante
DYEAR=1900
DGENRE=
TTITLE0=Overdose
TTITLE1=Il Mare
TTITLE2=Diamante
TTITLE3=Senza Una Donna
TTITLE4=Dame Mi Sol
TTITLE5=Madre Dolcissima
TTITLE6=El Diablo En Me
TTITLE7=Dune Mosse
TTITLE8=Chicas
TTITLE9=A Wonderful World
TTITLE10=Solo Una Sana Y Consabida Libido Salva Al Joven Del Stress Y 
TTITLE10=De La Accion Catolica!
TTITLE11=Miserere
TTITLE12=Eligeme
EXTD=
EXTT0=
EXTT1=
EXTT2=
EXTT3=
EXTT4=
EXTT5=
EXTT6=
EXTT7=
EXTT8=
EXTT9=
EXTT10=
EXTT11=
EXTT12=
PLAYORDER=
